<mxfile host="app.diagrams.net" modified="2024-02-06T20:00:48.430Z" agent="Mozilla/5.0 (Windows NT 10.0; Win64; x64) AppleWebKit/537.36 (KHTML, like Gecko) Chrome/121.0.0.0 Safari/537.36" version="23.1.1" etag="7bd4JS_Ue-q-bgXPX48C" type="github">
  <diagram name="Page-1" id="0UdZ3q32xMpUc2Tg0os0">
    <mxGraphModel>
      <root>
        <mxCell id="0" />
        <mxCell id="1" parent="0" />
      </root>
    </mxGraphModel>
  </diagram>
</mxfile>
